<?xml version="1.0" encoding="utf-8"?>
<!-- Generator: Adobe Illustrator 27.0.0, SVG Export Plug-In . SVG Version: 6.00 Build 0)  -->
<svg version="1.1" id="Layer_1" xmlns="http://www.w3.org/2000/svg" xmlns:xlink="http://www.w3.org/1999/xlink" x="0px" y="0px"
	 viewBox="0 0 238.42 238.43" style="enable-background:new 0 0 238.42 238.43;" xml:space="preserve">
<style type="text/css">
	.st0{fill:#EFB157;}
</style>
<g>
	<g>
		<g>
			<path class="st0" d="M208.33,128.34c0.1-1.77,0.11-3.54,0.16-5.31c-1.44,1.32-2.88,2.59-4.31,3.79
				c-1.37-1.32-2.75-2.59-4.12-3.79c-0.05,1.61-0.06,3.23-0.15,4.84c1.31,1.28,2.62,2.62,3.92,4.02
				C205.33,130.77,206.83,129.58,208.33,128.34z"/>
			<path class="st0" d="M205.87,144.95c0.4-1.73,0.82-3.45,1.09-5.2c-1.6,1.06-3.23,2.05-4.91,2.97c-1.07-1.54-2.21-3.03-3.39-4.47
				c-0.25,1.59-0.63,3.16-0.99,4.73c1.12,1.51,2.12,3.05,3.13,4.66C202.49,146.79,204.23,145.91,205.87,144.95z"/>
			<path class="st0" d="M200.46,160.84c0.76-1.6,1.37-3.27,2.03-4.92c-1.81,0.73-3.57,1.42-5.36,2.03c-0.8-1.72-1.67-3.4-2.54-5.02
				c-0.6,1.49-1.15,3.01-1.84,4.47c0.78,1.66,1.58,3.41,2.24,5.15C196.86,162.07,198.62,161.47,200.46,160.84z"/>
			<path class="st0" d="M192.29,175.5c0.99-1.47,1.94-2.97,2.88-4.47c-1.89,0.41-3.8,0.73-5.65,1.02c-0.49-1.85-1-3.63-1.58-5.38
				c-0.86,1.37-1.72,2.73-2.62,4.07c0.46,1.78,0.89,3.6,1.28,5.47C188.47,176.02,190.37,175.79,192.29,175.5z"/>
			<path class="st0" d="M181.62,188.45c1.21-1.3,2.49-2.53,3.62-3.89c-1.9,0.09-3.85,0.06-5.74,0c-0.14-1.89-0.31-3.72-0.59-5.58
				c-1.03,1.25-2.2,2.36-3.29,3.54c0.16,1.86,0.22,3.69,0.27,5.6C177.75,188.27,179.7,188.41,181.62,188.45z"/>
			<path class="st0" d="M128.55,215.18c1.76-0.21,3.5-0.59,5.24-0.88c-1.58-1.14-3.1-2.3-4.57-3.47c1.03-1.61,2-3.21,2.91-4.8
				c-1.59,0.26-3.17,0.61-4.77,0.8c-1,1.54-2.05,3.11-3.18,4.64C125.59,212.73,127.04,213.95,128.55,215.18z"/>
			<path class="st0" d="M111.8,216.03c1.77,0.03,3.54,0.13,5.31,0.05c-1.35-1.35-2.64-2.78-3.87-4.23c1.3-1.36,2.54-2.74,3.72-4.2
				c-1.61,0.08-3.22-0.02-4.84-0.04c-1.26,1.4-2.57,2.67-3.95,3.99C109.33,213.07,110.53,214.62,111.8,216.03z"/>
			<path class="st0" d="M155.49,207.06c1.59-0.79,3.17-1.59,4.73-2.43c-1.83-0.58-3.65-1.27-5.4-1.94c0.5-1.85,0.96-3.63,1.33-5.45
				c-1.42,0.77-2.86,1.49-4.3,2.21c-0.49,1.76-1.04,3.56-1.64,5.37C151.92,205.59,153.68,206.34,155.49,207.06z"/>
			<path class="st0" d="M146.58,210.75c1.68-0.57,3.31-1.28,4.96-1.91c-1.78-0.81-3.5-1.64-5.17-2.49c0.69-1.78,1.32-3.54,1.89-5.28
				c-1.51,0.57-2.98,1.22-4.51,1.74c-0.67,1.7-1.39,3.45-2.19,5.18C143.19,208.94,144.86,209.84,146.58,210.75z"/>
		</g>
		<g>
			<path class="st0" d="M64.34,200.85c1.49,0.96,2.97,1.93,4.53,2.79c-0.45-1.86-0.83-3.74-1.13-5.62c1.81-0.49,3.6-1.05,5.36-1.68
				c-1.41-0.77-2.76-1.67-4.12-2.53c-1.8,0.55-3.58,0.95-5.44,1.37C63.75,197.03,63.98,198.98,64.34,200.85z"/>
			<path class="st0" d="M51.21,190.4c1.26,1.25,2.6,2.41,3.95,3.56c-0.08-1.95-0.16-3.81-0.11-5.73c1.86-0.14,3.76-0.43,5.57-0.7
				c-1.22-1.05-2.44-2.1-3.59-3.24c-1.85,0.19-3.73,0.33-5.6,0.38C51.27,186.58,51.21,188.48,51.21,190.4z"/>
			<path class="st0" d="M40.14,177.79c1.01,1.46,2.16,2.81,3.24,4.21c0.27-1.93,0.57-3.82,0.92-5.66c1.91,0.15,3.78,0.25,5.61,0.31
				c-0.98-1.28-2.03-2.5-2.95-3.83c-1.82-0.16-3.73-0.34-5.58-0.63C40.89,174.04,40.52,175.88,40.14,177.79z"/>
			<path class="st0" d="M31.5,163.4c0.82,1.57,1.58,3.18,2.46,4.72c0.56-1.82,1.26-3.66,1.93-5.41c1.85,0.49,3.61,0.96,5.45,1.31
				c-0.8-1.4-1.49-2.86-2.24-4.29c-1.76-0.49-3.55-1.03-5.36-1.63C32.97,159.82,32.22,161.58,31.5,163.4z"/>
			<path class="st0" d="M25.64,147.67c0.48,1.71,0.96,3.42,1.56,5.09c0.89-1.7,1.84-3.35,2.86-4.97c1.67,0.83,3.4,1.59,5.13,2.27
				c-0.55-1.52-0.98-3.07-1.41-4.62c-1.71-0.78-3.33-1.65-4.99-2.57C27.7,144.42,26.61,146.03,25.64,147.67z"/>
			<path class="st0" d="M29.02,88.35l-0.97,2.48l-0.86,2.52c1.76-0.81,3.48-1.56,5.28-2.23c0.82,1.67,1.77,3.33,2.71,4.92l0.78-2.29
				l0.89-2.25c-0.89-1.65-1.67-3.33-2.42-5.06C32.62,87,30.79,87.63,29.02,88.35z"/>
			<path class="st0" d="M36.66,73.41c-0.99,1.47-1.82,3.04-2.72,4.57c1.89-0.46,3.74-0.89,5.59-1.24c0.55,1.82,1.16,3.61,1.79,5.33
				c0.82-1.39,1.57-2.82,2.47-4.16c-0.53-1.76-1.08-3.6-1.48-5.42C40.41,72.71,38.58,73.05,36.66,73.41z"/>
			<path class="st0" d="M22.63,115.74l-0.19,2.65l-0.07,2.66c1.45-1.29,2.84-2.53,4.37-3.7c1.28,1.35,2.7,2.64,4.07,3.88l0.06-2.42
				l0.18-2.41c-1.32-1.31-2.62-2.68-3.83-4.1C25.63,113.38,24.12,114.53,22.63,115.74z"/>
			<path class="st0" d="M23.87,106.18l-0.47,2.62l-0.34,2.64c1.57-1.14,3.09-2.23,4.73-3.23c1.14,1.47,2.4,2.91,3.64,4.28l0.31-2.4
				l0.43-2.38c-1.19-1.44-2.32-2.93-3.39-4.48C27.11,104.14,25.46,105.13,23.87,106.18z"/>
		</g>
		<g>
			<path class="st0" d="M73.54,39.9l-2.37,1.21l-2.31,1.32c1.85,0.56,3.65,1.13,5.44,1.82c-0.49,1.8-0.87,3.67-1.21,5.48l2.1-1.2
				l2.15-1.1c0.43-1.83,0.95-3.61,1.52-5.4C77.13,41.26,75.34,40.53,73.54,39.9z"/>
			<path class="st0" d="M89.15,33.73c-1.72,0.45-3.38,1.09-5.06,1.64c1.73,0.9,3.4,1.81,5.02,2.76c-0.79,1.74-1.51,3.48-2.18,5.18
				c1.53-0.5,3.04-1.08,4.6-1.49c0.77-1.66,1.57-3.41,2.47-5.04C92.43,35.68,90.83,34.73,89.15,33.73z"/>
			<path class="st0" d="M105.62,30.46c-1.76,0.24-3.52,0.4-5.27,0.71c1.53,1.13,3.02,2.42,4.44,3.64c-1.09,1.57-2.12,3.06-3.08,4.69
				c1.59-0.29,3.2-0.43,4.79-0.65c1.05-1.51,2.17-2.99,3.34-4.5C108.49,33.05,107.08,31.73,105.62,30.46z"/>
			<path class="st0" d="M122.39,30.23c-1.77-0.17-3.54-0.21-5.31-0.25c1.3,1.46,2.54,2.84,3.72,4.36c-1.34,1.29-2.64,2.72-3.87,4.08
				c1.61,0.03,3.23,0.07,4.83,0.22c1.31-1.31,2.67-2.64,4.09-3.85C124.76,33.21,123.6,31.74,122.39,30.23z"/>
			<path class="st0" d="M138.95,32.96c-1.72-0.42-3.45-0.83-5.18-1.19c1.02,1.64,1.97,3.33,2.87,4.97c-1.57,1.09-3.07,2.16-4.53,3.3
				c1.58,0.33,3.15,0.7,4.71,1.08c1.51-1.03,3.09-2.05,4.72-3.05C140.73,36.39,139.87,34.68,138.95,32.96z"/>
			<path class="st0" d="M188.61,65.57c-1.07-1.41-2.23-2.75-3.4-4.09c-0.2,1.94-0.38,3.79-0.71,5.69c-1.86-0.12-3.79-0.11-5.62-0.1
				c1.06,1.21,2.12,2.43,3.09,3.72c1.86,0.07,3.74,0.2,5.6,0.42C188,69.35,188.33,67.48,188.61,65.57z"/>
			<path class="st0" d="M197.76,79.64c-0.79-1.59-1.74-3.09-2.6-4.64c-0.54,1.87-1.12,3.7-1.72,5.47c-1.86-0.42-3.7-0.79-5.5-1.11
				c0.78,1.41,1.65,2.77,2.37,4.22c1.78,0.42,3.64,0.87,5.44,1.42C196.48,83.25,197.11,81.49,197.76,79.64z"/>
			<path class="st0" d="M168.12,46.32c-1.45-1.02-2.97-1.93-4.46-2.9c0.39,1.91,0.72,3.8,1.01,5.65c-1.85,0.49-3.64,1.01-5.39,1.56
				c1.35,0.88,2.73,1.71,4.05,2.64c1.78-0.45,3.62-0.9,5.48-1.26C168.65,50.13,168.4,48.25,168.12,46.32z"/>
			<path class="st0" d="M175.76,52.19c-1.32-1.19-2.75-2.23-4.13-3.34c0.19,1.94,0.34,3.83,0.43,5.71
				c-1.88,0.29-3.73,0.64-5.53,1.01c1.25,1.01,2.57,1.95,3.76,3.04c1.81-0.27,3.72-0.56,5.57-0.69
				C175.92,56,175.84,54.15,175.76,52.19z"/>
		</g>
	</g>
	<g>
		<path class="st0" d="M183.22,225.69l-11.63-17.33l0.68-0.45c17.46-11.72,30.71-28.25,38.33-47.81l0.3-0.76l19.44,7.58l-0.29,0.76
			c-9.03,23.25-25.42,43.69-46.15,57.56L183.22,225.69z M173.85,208.81l9.81,14.62c19.91-13.53,35.69-33.21,44.56-55.58l-16.4-6.39
			C204.13,180.74,191.03,197.09,173.85,208.81z"/>
	</g>
	<g>
		<path class="st0" d="M235.22,150.94l-20.36-4.59l0.18-0.8c1.61-7.14,2.45-14.47,2.5-21.78l0.01-0.82l20.87,0.15l-0.01,0.82
			c-0.07,8.82-1.08,17.64-3.01,26.21L235.22,150.94z M216.81,145.12l17.18,3.87c1.74-7.94,2.67-16.09,2.79-24.25l-17.61-0.13
			C219.06,131.49,218.27,138.38,216.81,145.12z"/>
	</g>
	<g>
		<path class="st0" d="M161.22,31.71l-0.73-0.36c-14.11-6.95-29.28-10.48-45.09-10.48c-5.18,0-10.39,0.39-15.49,1.17l-0.81,0.12
			L95.97,1.53l0.81-0.12C102.83,0.52,109.1,0.04,115.4,0c6.31,0.04,12.57,0.52,18.64,1.41c6.2,0.98,12.34,2.41,18.27,4.24
			c5.82,1.84,11.67,4.19,17.4,6.98l0.74,0.36L161.22,31.71z M115.4,19.24c15.78,0,30.94,3.46,45.07,10.29l7.78-15.79
			c-5.42-2.6-10.95-4.8-16.44-6.54c-5.85-1.81-11.91-3.21-18.03-4.18c-5.98-0.88-12.17-1.34-18.39-1.39
			c-5.93,0.04-11.85,0.47-17.57,1.27l2.65,17.4C105.4,19.6,110.41,19.24,115.4,19.24z"/>
	</g>
	<g>
		<g>
			<path class="st0" d="M102.27,224.32c19.68,2.58,40.07-0.73,57.88-9.48l1.95,3.99c-18.58,9.13-39.88,12.59-60.4,9.89
				L102.27,224.32z"/>
			<path class="st0" d="M53.69,204.4c3.93,3.03,8.12,5.73,12.47,8.11l-2.14,3.89c-4.54-2.49-8.91-5.3-13.02-8.47L53.69,204.4z"/>
		</g>
		<g>
			<path class="st0" d="M27.74,175.4c6.7,11.2,15.55,21.11,25.95,29L51,207.94c-10.85-8.24-20.09-18.57-27.07-30.26L27.74,175.4z"/>
			<path class="st0" d="M34.25,61.02c-12.1,15.73-19.35,35.07-20.74,54.87l-4.43-0.31c1.44-20.64,9.01-40.84,21.64-57.25
				L34.25,61.02z"/>
			<path class="st0" d="M13.69,132.36c0.8,8.55,2.6,17.02,5.55,25.1l-4.18,1.5c-3.08-8.43-4.96-17.27-5.8-26.2L13.69,132.36z"/>
			<path class="st0" d="M75.8,28.9c-4.58,1.92-9.03,4.16-13.25,6.77l-2.3-3.8c4.41-2.72,9.05-5.05,13.83-7.06L75.8,28.9z"/>
		</g>
	</g>
	<g>
		<polygon class="st0" points="150.17,229.86 154.01,228.56 155.07,231.45 151.12,232.79 		"/>
		<polygon class="st0" points="142.94,231.96 146.85,230.88 147.71,233.84 143.69,234.95 		"/>
		<path class="st0" d="M135.57,233.53c1.34-0.21,2.66-0.47,3.98-0.79l0.66,3.01c-1.35,0.33-2.72,0.6-4.09,0.82L135.57,233.53z"/>
		<polygon class="st0" points="128.12,234.62 132.15,234.12 132.61,237.17 128.47,237.69 		"/>
		<polygon class="st0" points="120.62,235.25 124.67,234.96 124.92,238.03 120.76,238.33 		"/>
		<polygon class="st0" points="166.46,223.09 168.18,222.22 169.63,224.94 167.86,225.84 		"/>
		<path class="st0" d="M163.25,224.69c0.59-0.25,1.16-0.55,1.73-0.85l1.36,2.77c-0.59,0.3-1.17,0.61-1.78,0.87L163.25,224.69z"/>
		<polygon class="st0" points="159.98,226.16 161.75,225.37 163.02,228.17 161.21,228.99 		"/>
		<polygon class="st0" points="112.53,235.31 114.08,235.35 114.05,238.43 112.45,238.39 		"/>
		<polygon class="st0" points="109.14,235.21 110.69,235.25 110.57,238.33 108.97,238.28 		"/>
		<polygon class="st0" points="105.76,234.94 107.31,235.06 107.09,238.14 105.5,238.01 		"/>
		<path class="st0" d="M102.39,234.61c0.51,0.06,1.02,0.15,1.54,0.18l-0.31,3.07c-0.53-0.03-1.06-0.12-1.58-0.18L102.39,234.61z"/>
		<polygon class="st0" points="99.02,234.17 100.56,234.37 100.16,237.43 98.58,237.22 		"/>
		<polygon class="st0" points="95.68,233.62 97.2,233.9 96.71,236.94 95.14,236.65 		"/>
		<polygon class="st0" points="92.34,233.01 93.87,233.29 93.28,236.31 91.71,236.02 		"/>
		<path class="st0" d="M64.45,223.14c1.2,0.63,2.4,1.24,3.65,1.78l-1.3,2.8c-1.28-0.55-2.52-1.18-3.75-1.83L64.45,223.14z"/>
		<polygon class="st0" points="57.86,219.51 61.37,221.54 59.89,224.24 56.28,222.15 		"/>
		<path class="st0" d="M51.53,215.43c1.08,0.81,2.26,1.49,3.38,2.24l-1.66,2.6c-1.16-0.77-2.36-1.47-3.48-2.3L51.53,215.43z"/>
		<path class="st0" d="M45.49,210.93c1.07,0.82,2.1,1.71,3.21,2.48l-1.83,2.48c-1.14-0.8-2.2-1.7-3.3-2.55L45.49,210.93z"/>
		<polygon class="st0" points="39.74,206.07 42.8,208.73 40.81,211.08 37.66,208.35 		"/>
		<path class="st0" d="M80.75,229.9c0.61,0.22,1.22,0.41,1.84,0.58l-0.9,2.95c-0.64-0.17-1.27-0.38-1.89-0.6L80.75,229.9z"/>
		<polygon class="st0" points="77.36,228.75 79.19,229.37 78.19,232.29 76.31,231.65 		"/>
		<polygon class="st0" points="74.02,227.46 75.81,228.18 74.72,231.06 72.88,230.33 		"/>
		<polygon class="st0" points="33.98,200.39 35.05,201.52 32.85,203.67 31.75,202.51 		"/>
		<path class="st0" d="M31.67,197.91c0.33,0.4,0.68,0.78,1.04,1.15l-2.27,2.09c-0.37-0.38-0.73-0.77-1.07-1.18L31.67,197.91z"/>
		<polygon class="st0" points="29.45,195.34 30.47,196.52 28.14,198.54 27.1,197.33 		"/>
		<polygon class="st0" points="27.31,192.71 28.27,193.94 25.88,195.88 24.9,194.63 		"/>
		<polygon class="st0" points="25.22,190.04 26.18,191.27 23.73,193.14 22.75,191.88 		"/>
		<polygon class="st0" points="23.26,187.28 24.16,188.54 21.66,190.34 20.74,189.04 		"/>
		<polygon class="st0" points="21.36,184.47 22.2,185.78 19.64,187.5 18.78,186.16 		"/>
		<polygon class="st0" points="8.58,157.8 9.88,161.64 6.98,162.7 5.65,158.75 		"/>
		<polygon class="st0" points="6.47,150.57 7.56,154.48 4.6,155.34 3.48,151.32 		"/>
		<path class="st0" d="M4.91,143.2c0.21,1.34,0.47,2.66,0.79,3.98l-3.01,0.66c-0.33-1.35-0.6-2.72-0.82-4.09L4.91,143.2z"/>
		<polygon class="st0" points="3.81,135.75 4.31,139.78 1.26,140.24 0.75,136.1 		"/>
		<polygon class="st0" points="3.18,128.25 3.47,132.3 0.4,132.55 0.1,128.39 		"/>
		<polygon class="st0" points="15.34,174.09 16.22,175.81 13.5,177.26 12.6,175.49 		"/>
		<path class="st0" d="M13.75,170.88c0.25,0.59,0.55,1.16,0.85,1.73l-2.77,1.36c-0.3-0.59-0.61-1.17-0.87-1.78L13.75,170.88z"/>
		<polygon class="st0" points="12.28,167.61 13.07,169.37 10.26,170.65 9.45,168.84 		"/>
		<polygon class="st0" points="3.13,120.16 3.08,121.71 0,121.68 0.05,120.08 		"/>
		<polygon class="st0" points="3.23,116.77 3.18,118.32 0.1,118.19 0.15,116.6 		"/>
		<polygon class="st0" points="3.5,113.39 3.37,114.94 0.3,114.72 0.43,113.13 		"/>
		<path class="st0" d="M3.82,110.01c-0.06,0.51-0.15,1.02-0.18,1.54l-3.07-0.31c0.03-0.53,0.12-1.06,0.18-1.58L3.82,110.01z"/>
		<polygon class="st0" points="4.26,106.65 4.06,108.19 1.01,107.79 1.21,106.21 		"/>
		<polygon class="st0" points="4.82,103.31 4.54,104.83 1.49,104.34 1.78,102.77 		"/>
		<polygon class="st0" points="5.43,99.97 5.15,101.5 2.12,100.91 2.41,99.34 		"/>
		<path class="st0" d="M15.29,72.08c-0.63,1.2-1.24,2.4-1.78,3.65l-2.8-1.3c0.55-1.28,1.18-2.52,1.83-3.75L15.29,72.08z"/>
		<polygon class="st0" points="18.93,65.49 16.9,69 14.2,67.52 16.28,63.91 		"/>
		<path class="st0" d="M23.01,59.16c-0.81,1.08-1.49,2.26-2.24,3.38l-2.6-1.66c0.77-1.16,1.47-2.36,2.3-3.48L23.01,59.16z"/>
		<path class="st0" d="M27.5,53.12c-0.82,1.07-1.71,2.1-2.48,3.21l-2.48-1.83c0.8-1.14,1.7-2.2,2.55-3.3L27.5,53.12z"/>
		<polygon class="st0" points="32.36,47.37 29.7,50.43 27.35,48.44 30.09,45.29 		"/>
		<path class="st0" d="M8.53,88.38c-0.22,0.61-0.41,1.22-0.58,1.84L5,89.32c0.17-0.64,0.38-1.27,0.6-1.89L8.53,88.38z"/>
		<polygon class="st0" points="9.69,84.99 9.06,86.81 6.15,85.82 6.79,83.94 		"/>
		<polygon class="st0" points="10.97,81.64 10.26,83.44 7.37,82.35 8.1,80.51 		"/>
		<polygon class="st0" points="38.04,41.61 36.92,42.68 34.76,40.48 35.92,39.38 		"/>
		<path class="st0" d="M40.52,39.3c-0.4,0.33-0.78,0.68-1.15,1.04l-2.09-2.27c0.38-0.37,0.77-0.73,1.18-1.07L40.52,39.3z"/>
		<polygon class="st0" points="43.09,37.08 41.92,38.1 39.9,35.77 41.1,34.72 		"/>
		<polygon class="st0" points="45.72,34.94 44.5,35.9 42.55,33.51 43.81,32.53 		"/>
		<polygon class="st0" points="48.39,32.85 47.17,33.81 45.29,31.36 46.55,30.38 		"/>
		<polygon class="st0" points="51.16,30.89 49.89,31.79 48.09,29.29 49.39,28.37 		"/>
		<polygon class="st0" points="53.96,28.99 52.66,29.83 50.93,27.27 52.27,26.41 		"/>
		<polygon class="st0" points="80.64,16.21 76.79,17.51 75.74,14.61 79.69,13.27 		"/>
		<polygon class="st0" points="87.87,14.1 83.96,15.19 83.1,12.22 87.12,11.11 		"/>
		<polygon class="st0" points="64.35,22.97 62.63,23.84 61.18,21.12 62.94,20.22 		"/>
		<path class="st0" d="M67.55,21.37c-0.59,0.25-1.16,0.55-1.73,0.85l-1.36-2.77c0.59-0.3,1.17-0.61,1.78-0.87L67.55,21.37z"/>
		<polygon class="st0" points="70.82,19.91 69.06,20.7 67.79,17.89 69.6,17.08 		"/>
		<path class="st0" d="M179.28,30.63c-1.08-0.81-2.26-1.49-3.38-2.24l1.66-2.6c1.16,0.77,2.36,1.47,3.48,2.3L179.28,30.63z"/>
		<path class="st0" d="M185.31,35.13c-1.07-0.82-2.1-1.71-3.21-2.48l1.83-2.48c1.14,0.8,2.2,1.7,3.3,2.55L185.31,35.13z"/>
		<polygon class="st0" points="191.07,39.99 188,37.33 189.99,34.98 193.14,37.71 		"/>
		<polygon class="st0" points="196.82,45.67 195.75,44.55 197.96,42.39 199.06,43.55 		"/>
		<path class="st0" d="M199.14,48.15c-0.33-0.4-0.68-0.78-1.04-1.15l2.27-2.09c0.37,0.38,0.73,0.77,1.07,1.18L199.14,48.15z"/>
		<polygon class="st0" points="201.35,50.72 200.34,49.54 202.67,47.53 203.71,48.73 		"/>
		<polygon class="st0" points="203.49,53.35 202.54,52.13 204.92,50.18 205.91,51.43 		"/>
		<polygon class="st0" points="205.58,56.02 204.63,54.8 207.07,52.92 208.05,54.18 		"/>
		<polygon class="st0" points="207.54,58.79 206.64,57.52 209.15,55.72 210.07,57.02 		"/>
		<polygon class="st0" points="209.45,61.59 208.61,60.29 211.16,58.56 212.02,59.9 		"/>
		<polygon class="st0" points="222.23,88.27 220.93,84.42 223.82,83.37 225.16,87.32 		"/>
		<polygon class="st0" points="224.34,95.5 223.25,91.59 226.21,90.73 227.32,94.74 		"/>
		<path class="st0" d="M225.9,102.86c-0.21-1.34-0.47-2.66-0.79-3.98l3.01-0.66c0.33,1.35,0.6,2.72,0.82,4.09L225.9,102.86z"/>
		<polygon class="st0" points="226.99,110.31 226.5,106.28 229.54,105.83 230.06,109.97 		"/>
		<polygon class="st0" points="215.47,71.98 214.59,70.26 217.31,68.81 218.21,70.57 		"/>
		<path class="st0" d="M217.06,75.18c-0.25-0.59-0.55-1.16-0.85-1.73l2.77-1.36c0.3,0.59,0.61,1.17,0.87,1.78L217.06,75.18z"/>
		<polygon class="st0" points="218.53,78.45 217.74,76.69 220.54,75.42 221.36,77.23 		"/>
	</g>
</g>
</svg>
